<?xml version="1.0" encoding="UTF-8"?>
<svg width="1000px" height="1000px" viewBox="0 0 1000 1000" xmlns="http://www.w3.org/2000/svg" xmlns:xlink="http://www.w3.org/1999/xlink" version="1.1">
 <!-- Generated by Pixelmator Pro 2.3 -->
 <path id="Скругл.-прямоугольник" d="M40 0 C17.909 0 0 17.909 0 40 L0 960 C0 982.091 17.909 1000 40 1000 L960 1000 C982.091 1000 1000 982.091 1000 960 L1000 40 C1000 17.909 982.091 0 960 0 Z" fill="#ffffff" fill-opacity="1" stroke="none"/>
 <g id="angle">
  <path id="angle-4" d="M30 110 C30 110 31.001 113.933 35 114 39.003 114.067 40 110 40 110 40 110 40 64.685 40 42.028 40 41.352 41.336 40 42.004 40 64.669 40 110 40 110 40 110 40 114 39 114 35 114 31 110 30 110 30 110 30 63.337 30 40.005 30 32.005 30 30 32 30 40 30 63.333 30 110 30 110" fill="#0e1117" fill-opacity="1" stroke="none"/>
  <path id="angle-3" d="M110 970 C110 970 113.932 969 114 965 114.067 960.998 110 960 110 960 110 960 64.685 960 42.027 960 41.351 960 40 958.665 40 957.997 40 935.331 40 890 40 890 40 890 39 886 35 886 31 886 30 890 30 890 30 890 30 936.664 30 959.995 30 967.995 31.999 970 39.999 970 63.333 970 110 970 110 970" fill="#0e1117" fill-opacity="1" stroke="none"/>
  <path id="angle-2" d="M970 890.001 C970 890.001 968.999 886.068 965 886.001 960.997 885.933 960 890.001 960 890.001 960 890.001 960 935.316 960 957.973 960 958.649 958.664 960.001 957.996 960.001 935.331 960.001 890 960.001 890 960.001 890 960.001 886 961.001 886 965.001 886 969.001 890 970.001 890 970.001 890 970.001 936.663 970.001 959.995 970.001 967.995 970.001 970 968.001 970 960.001 970 936.668 970 890.001 970 890.001" fill="#0e1117" fill-opacity="1" stroke="none"/>
  <path id="angle-1" d="M890 30 C890 30 886.068 31.001 886 35 885.933 39.003 890 40 890 40 890 40 935.315 40 957.973 40 958.649 40 960 41.336 960 42.004 960 64.67 960 110 960 110 960 110 961 114 965 114 969 114 970 110 970 110 970 110 970 63.337 970 40.006 970 32.006 968.001 30 960.001 30 936.667 30 890 30 890 30" fill="#0e1117" fill-opacity="1" stroke="none"/>
 </g>
 <defs>
  <path id="FULL-AUTOUPDATE" d="M699.952 854 L719.509 800.68 731.593 800.68 751.296 854 737.489 854 734.376 844.039 716.763 844.039 713.685 854 699.952 854 Z M763.782 854 L763.782 810.604 748.073 810.604 748.073 800.68 792.642 800.68 792.642 810.604 776.638 810.604 776.638 854 763.782 854 Z M798.06 854 L798.06 800.68 834.864 800.68 834.864 810.604 810.915 810.604 810.915 821.846 831.13 821.846 831.13 831.404 810.915 831.404 810.915 844.111 834.792 844.111 834.792 854 798.06 854 Z M719.837 834.115 L731.3 834.115 725.552 815.621 719.837 834.115 Z M656.374 854 L656.374 800.68 673.549 800.68 C678.261 800.68 682.497 801.748 686.256 803.884 690.016 806.02 692.952 809.035 695.064 812.929 697.176 816.823 698.244 821.188 698.268 826.021 L698.268 828.475 C698.268 833.358 697.237 837.734 695.174 841.604 693.111 845.473 690.205 848.501 686.458 850.686 682.71 852.871 678.529 853.976 673.915 854 Z M669.228 810.604 L669.228 844.112 673.695 844.112 C677.382 844.112 680.214 842.8 682.191 840.176 684.169 837.551 685.158 833.651 685.158 828.475 L685.158 826.168 C685.158 821.017 684.169 817.135 682.191 814.522 680.214 811.91 677.333 810.604 673.549 810.604 Z M620.412 835.909 L620.412 854 607.558 854 607.558 800.68 628.834 800.68 C632.912 800.68 636.519 801.43 639.656 802.932 642.793 804.433 645.222 806.57 646.944 809.341 648.665 812.112 649.525 815.255 649.525 818.771 649.525 823.971 647.664 828.127 643.941 831.24 640.218 834.353 635.109 835.909 628.615 835.909 Z M620.412 825.985 L628.834 825.985 C631.325 825.985 633.223 825.362 634.529 824.117 635.835 822.872 636.488 821.114 636.488 818.844 636.488 816.354 635.817 814.364 634.474 812.875 633.131 811.385 631.3 810.628 628.981 810.604 L620.412 810.604 Z M599.538 800.68 L599.538 835.58 C599.538 839.535 598.695 842.959 597.011 845.852 595.326 848.745 592.909 850.948 589.76 852.462 586.61 853.976 582.887 854.732 578.59 854.732 572.096 854.732 566.981 853.048 563.246 849.679 559.511 846.31 557.606 841.695 557.533 835.836 L557.533 800.68 570.46 800.68 570.46 836.092 C570.607 841.927 573.317 844.845 578.59 844.845 581.251 844.845 583.266 844.112 584.633 842.647 586 841.183 586.684 838.802 586.684 835.506 L586.684 800.68 Z M551.088 828.438 C551.088 833.639 550.124 838.241 548.195 842.245 546.266 846.249 543.526 849.331 539.973 851.491 536.421 853.652 532.375 854.732 527.833 854.732 523.292 854.732 519.264 853.689 515.749 851.601 512.233 849.514 509.492 846.529 507.527 842.647 505.562 838.766 504.53 834.31 504.433 829.281 L504.433 826.278 C504.433 821.053 505.391 816.445 507.307 812.453 509.224 808.462 511.97 805.379 515.547 803.207 519.124 801.034 523.195 799.947 527.76 799.947 532.277 799.947 536.305 801.021 539.845 803.17 543.385 805.318 546.138 808.376 548.103 812.344 550.069 816.311 551.063 820.858 551.088 825.985 Z M538.014 826.205 C538.014 820.907 537.129 816.885 535.359 814.138 533.589 811.391 531.056 810.018 527.76 810.018 521.315 810.018 517.909 814.852 517.543 824.52 L517.506 828.438 C517.506 833.663 518.373 837.679 520.106 840.487 521.84 843.294 524.416 844.698 527.833 844.698 531.081 844.698 533.583 843.319 535.341 840.56 537.099 837.801 537.99 833.834 538.014 828.658 Z M501.54 810.604 L485.536 810.604 485.536 854 472.682 854 472.682 810.604 456.972 810.604 456.972 800.68 501.54 800.68 Z M451.662 800.68 L451.662 835.58 C451.662 839.535 450.819 842.959 449.135 845.852 447.45 848.745 445.033 850.948 441.884 852.462 438.734 853.976 435.011 854.732 430.714 854.732 424.22 854.732 419.105 853.048 415.37 849.679 411.635 846.31 409.73 841.695 409.657 835.836 L409.657 800.68 422.584 800.68 422.584 836.092 C422.731 841.927 425.441 844.845 430.714 844.845 433.375 844.845 435.39 844.112 436.757 842.647 438.124 841.183 438.808 838.802 438.808 835.506 L438.808 800.68 Z M389.662 844.039 L372.047 844.039 368.971 854 355.238 854 374.794 800.68 386.879 800.68 406.581 854 392.775 854 Z M375.124 834.115 L386.586 834.115 380.836 815.621 Z M312.904 844.112 L335.28 844.112 335.28 854 300.05 854 300.05 800.68 312.904 800.68 Z M272.255 844.112 L294.63 844.112 294.63 854 259.401 854 259.401 800.68 272.255 800.68 Z M251.381 800.68 L251.381 835.58 C251.381 839.535 250.539 842.959 248.854 845.852 247.169 848.745 244.752 850.948 241.603 852.462 238.454 853.976 234.73 854.732 230.434 854.732 223.939 854.732 218.825 853.048 215.089 849.679 211.354 846.31 209.45 841.695 209.376 835.836 L209.376 800.68 222.304 800.68 222.304 836.092 C222.45 841.927 225.16 844.845 230.434 844.845 233.095 844.845 235.109 844.112 236.476 842.647 237.843 841.183 238.527 838.802 238.527 835.506 L238.527 800.68 Z M202.125 832.76 L181.398 832.76 181.398 854 168.544 854 168.544 800.68 204.213 800.68 204.213 810.604 181.398 810.604 181.398 822.872 202.125 822.872 Z"/>
 </defs>
 <use id="FULL-AUTOUPDATE-1" xlink:href="#FULL-AUTOUPDATE" fill="#000000" fill-opacity="1" stroke="none"/>
 <defs>
  <linearGradient id="linear-gradient" gradientUnits="userSpaceOnUse" x1="159" y1="828" x2="841" y2="828">
   <stop offset="0" stop-color="#f12711" stop-opacity="1"/>
   <stop offset="1" stop-color="#f5af19" stop-opacity="1"/>
  </linearGradient>
 </defs>
 <use id="FULL-AUTOUPDATE-2" xlink:href="#FULL-AUTOUPDATE" fill="url(#linear-gradient)" fill-opacity="1" stroke="none"/>
 <defs>
  <path id="FULL" d="M313.233 844.112 L335.608 844.112 335.608 854 300.379 854 300.379 800.68 313.233 800.68 Z M272.583 844.112 L294.959 844.112 294.959 854 259.729 854 259.729 800.68 272.583 800.68 Z M251.709 800.68 L251.709 835.58 C251.709 839.535 250.867 842.959 249.183 845.852 247.498 848.745 245.081 850.948 241.932 852.462 238.782 853.976 235.059 854.732 230.762 854.732 224.268 854.732 219.153 853.048 215.418 849.679 211.683 846.31 209.778 841.695 209.705 835.836 L209.705 800.68 222.632 800.68 222.632 836.092 C222.779 841.927 225.489 844.845 230.762 844.845 233.423 844.845 235.438 844.112 236.805 842.647 238.172 841.183 238.855 838.802 238.855 835.506 L238.855 800.68 Z M202.454 832.76 L181.727 832.76 181.727 854 168.873 854 168.873 800.68 204.542 800.68 204.542 810.604 181.727 810.604 181.727 822.872 202.454 822.872 Z"/>
 </defs>
 <use id="FULL-1" xlink:href="#FULL" fill="#000000" fill-opacity="1" stroke="none"/>
 <use id="FULL-2" xlink:href="#FULL" fill="#0e1117" fill-opacity="1" stroke="none"/>
 <defs>
  <linearGradient id="linear-gradient-1" gradientUnits="userSpaceOnUse" x1="285" y1="412" x2="714" y2="412">
   <stop offset="0" stop-color="#f12711" stop-opacity="1"/>
   <stop offset="1" stop-color="#f5af19" stop-opacity="1"/>
  </linearGradient>
 </defs>
 <path id="bg_logo" d="M305 352 C293.954 352 285 360.954 285 372 L285 452 C285 463.046 293.954 472 305 472 L694 472 C705.046 472 714 463.046 714 452 L714 372 C714 360.954 705.046 352 694 352 Z" fill-opacity="1" fill="url(#linear-gradient-1)" stroke="none"/>
 <g id="Line">
  <g id="Line-2">
   <path id="path-2" d="M501.335 687.86 C410.478 687.86 330.103 643.6 280.107 575.546 287.188 573.705 294.27 571.722 301.352 569.881 336.901 560.533 341.646 542.971 315.515 517.053 289.313 491.134 263.253 465.074 237.405 438.872 211.557 412.67 190.259 416.639 184.647 453.035 178.684 491.713 174.06 521.276 169.109 556.825 164.025 593.322 172.225 605.263 207.703 595.491 221.3 591.737 222.038 591.196 235.635 587.514 292.57 674.051 390.154 731.341 501.335 731.341 650.954 731.341 776.415 627.805 810.323 488.37 812.108 481.031 821.262 449.707 795 446 775.545 443.254 770.788 466.065 770.788 466.065 769.297 473.645 767.797 481.166 765.396 488.458 696.712 697.1 501.335 687.86 501.335 687.86 Z" fill="#0e1117" fill-opacity="1" stroke="none"/>
  </g>
  <g id="Line-1">
   <path id="path-1" d="M504.715 135.467 C595.571 135.467 675.947 179.727 725.943 247.781 718.861 249.622 711.78 251.605 704.698 253.446 669.149 262.793 664.404 280.356 690.535 306.274 716.737 332.193 742.797 358.253 768.645 384.455 794.492 410.656 815.791 406.688 821.402 370.292 827.365 331.613 831.989 302.051 836.941 266.502 842.025 230.004 833.825 218.064 798.346 227.836 784.75 231.589 784.012 232.13 770.415 235.813 713.479 149.276 615.895 91.986 504.715 91.986 355.095 91.986 229.635 195.522 195.727 334.957 193.942 342.296 184.787 373.62 211.05 377.327 230.505 380.073 235.261 357.261 235.261 357.261 236.753 349.681 238.252 342.161 240.653 334.869 309.338 126.227 504.715 135.467 504.715 135.467 Z" fill="#0e1117" fill-opacity="1" stroke="none"/>
  </g>
 </g>
 <path id="Oh-My-Zsh" d="M654.193 402.624 C656.83 399.304 660.199 397.644 664.301 397.644 668.671 397.644 671.967 398.938 674.188 401.525 676.41 404.113 677.545 407.934 677.594 412.988 L677.594 438 665.216 438 665.216 413.281 C665.216 411.181 664.789 409.637 663.935 408.648 663.08 407.659 661.627 407.165 659.577 407.165 657.038 407.165 655.243 407.971 654.193 409.582 L654.193 438 641.852 438 641.852 381.75 654.193 381.75 Z M624.457 426.867 C624.457 425.817 623.908 424.975 622.809 424.34 621.71 423.706 619.623 423.046 616.547 422.363 613.471 421.679 610.932 420.782 608.93 419.671 606.928 418.56 605.402 417.211 604.352 415.625 603.302 414.038 602.777 412.219 602.777 410.168 602.777 406.53 604.279 403.533 607.282 401.177 610.285 398.822 614.215 397.644 619.074 397.644 624.298 397.644 628.498 398.828 631.671 401.196 634.845 403.564 636.432 406.677 636.432 410.534 L624.054 410.534 C624.054 407.36 622.382 405.773 619.037 405.773 617.743 405.773 616.657 406.134 615.778 406.854 614.899 407.574 614.459 408.471 614.459 409.545 614.459 410.644 614.997 411.535 616.071 412.219 617.145 412.902 618.86 413.464 621.216 413.903 623.572 414.343 625.641 414.868 627.423 415.478 633.38 417.529 636.359 421.203 636.359 426.501 636.359 430.114 634.754 433.056 631.543 435.327 628.333 437.597 624.176 438.732 619.074 438.732 615.68 438.732 612.653 438.122 609.992 436.901 607.331 435.681 605.255 434.021 603.766 431.921 602.277 429.821 601.532 427.612 601.532 425.292 L613.068 425.292 C613.117 427.124 613.727 428.46 614.899 429.302 616.071 430.145 617.572 430.566 619.403 430.566 621.088 430.566 622.351 430.224 623.194 429.541 624.036 428.857 624.457 427.966 624.457 426.867 Z M572.968 428.112 L598.456 428.112 598.456 438 556.928 438 556.928 431.225 582.343 394.604 556.781 394.604 556.781 384.68 598.2 384.68 598.2 391.271 Z M516.278 420.715 L522.87 398.376 536.09 398.376 519.94 444.628 519.245 446.313 C516.95 451.44 512.897 454.003 507.086 454.003 505.475 454.003 503.778 453.759 501.996 453.271 L501.996 444.445 503.607 444.445 C505.341 444.445 506.665 444.195 507.581 443.695 508.496 443.194 509.174 442.297 509.613 441.003 L510.602 438.366 496.833 398.376 510.016 398.376 Z M452.155 384.68 L464.057 421.777 475.922 384.68 492.841 384.68 492.841 438 479.95 438 479.95 425.549 481.195 400.061 468.305 438 459.809 438 446.881 400.024 448.126 425.549 448.126 438 435.272 438 435.272 384.68 Z M385.761 402.624 C388.397 399.304 391.767 397.644 395.868 397.644 400.238 397.644 403.534 398.938 405.756 401.525 407.978 404.113 409.113 407.934 409.162 412.988 L409.162 438 396.784 438 396.784 413.281 C396.784 411.181 396.356 409.637 395.502 408.648 394.647 407.659 393.195 407.165 391.144 407.165 388.605 407.165 386.811 407.971 385.761 409.582 L385.761 438 373.419 438 373.419 381.75 385.761 381.75 Z M367.633 412.438 C367.633 417.639 366.669 422.241 364.74 426.245 362.812 430.249 360.071 433.331 356.519 435.491 352.967 437.652 348.92 438.732 344.379 438.732 339.838 438.732 335.81 437.689 332.294 435.601 328.778 433.514 326.038 430.529 324.073 426.647 322.107 422.766 321.076 418.31 320.978 413.281 L320.978 410.278 C320.978 405.053 321.936 400.445 323.853 396.453 325.769 392.462 328.516 389.379 332.093 387.207 335.669 385.034 339.74 383.947 344.306 383.947 348.822 383.947 352.851 385.021 356.391 387.17 359.931 389.318 362.683 392.376 364.649 396.344 366.614 400.311 367.609 404.858 367.633 409.985 Z M354.56 410.205 C354.56 404.907 353.675 400.885 351.905 398.138 350.135 395.391 347.602 394.018 344.306 394.018 337.86 394.018 334.455 398.852 334.088 408.52 L334.052 412.438 C334.052 417.663 334.918 421.679 336.652 424.487 338.385 427.294 340.961 428.698 344.379 428.698 347.626 428.698 350.128 427.319 351.886 424.56 353.644 421.801 354.535 417.834 354.56 412.658 Z" fill="#ffffff" fill-opacity="1" stroke="none"/>
</svg>
